#!OML:ASF F:\VICON\USERDATA\INSTALL\rory3\rory3.ASF
:FULLY-SPECIFIED
:DEGREES
304
root 0.4011 15.3216 6.7766 -20.3914 -2.93532 8.23151
lowerback 16.8601 1.71451 -4.8326
upperback 7.92552 1.46719 -1.80386
thorax -1.05192 0.642914 0.575791
lowerneck -8.95175 -1.96153 -6.65072
upperneck 7.28224 -2.39261 6.62003
head 3.7915 -1.03811 2.9672
rclavicle -5.86415e-015 3.61788e-014
rhumerus -30.2768 -21.9549 -69.2504
rradius 12.3492
rwrist 38.2629
rhand -28.415 -1.59545
rfingers 7.12502
rthumb -1.78669 -31.5677
lclavicle -5.86415e-015 3.61788e-014
lhumerus -45.737 35.8219 58.0014
lradius 11.9329
lwrist -30.2904
lhand -19.963 29.2806
lfingers 7.12502
lthumb 6.37557 59.1647
rfemur -28.6213 6.77898 12.7354
rtibia 79.386
rfoot -29.5976 -9.98206
rtoes -2.41724
lfemur -24.2571 8.849 -22.7314
ltibia 73.9021
lfoot -24.365 -0.278181
ltoes -4.04747
305
root 0.391645 15.2184 6.86423 -19.8581 -3.22592 7.94149
lowerback 16.3715 1.6455 -4.45402
upperback 7.65511 1.45485 -1.76451
thorax -1.08023 0.648825 0.414682
lowerneck -9.21852 -1.91786 -6.82626
upperneck 8.20328 -2.3479 6.77131
head 4.11594 -1.00784 3.04771
rclavicle -2.8948e-014 2.98177e-014
rhumerus -30.7938 -23.6528 -68.8892
rradius 11.6517
rwrist 40.0186
rhand -27.8617 -1.48051
rfingers 7.12502
rthumb -1.25238 -31.4566
lclavicle -2.8948e-014 2.98177e-014
lhumerus -45.5405 35.3467 58.6462
lradius 12.211
lwrist -29.1272
lhand -19.9641 30.6636
lfingers 7.12502
lthumb 6.37447 60.5476
rfemur -29.7053 6.66073 13.0138
rtibia 80.7715
rfoot -30.341 -9.68076
rtoes -3.43076
lfemur -25.0792 9.27553 -22.252
ltibia 75.0856
lfoot -25.3005 -0.708434
ltoes -4.06035
306
root 0.383542 15.1165 6.94717 -19.5734 -3.41933 7.74861
lowerback 16.275 1.56666 -4.12195
upperback 7.4128 1.39521 -1.79635
thorax -1.27942 0.632541 0.204268
lowerneck -9.41391 -1.84059 -6.95365
upperneck 8.83766 -2.26316 6.97615
head 4.33932 -0.954904 3.1404
rclavicle -1.56791e-014 3.71727e-014
rhumerus -31.126 -23.3887 -69.5751
rradius 11.3938
rwrist 40.0798
rhand -27.2013 -1.07219
rfingers 7.12502
rthumb -0.614514 -31.0511
lclavicle -1.56791e-014 3.71727e-014
lhumerus -45.0202 34.215 59.7812
lradius 12.4316
lwrist -27.0148
lhand -20.0698 30.4419
lfingers 7.12502
lthumb 6.27243 60.329
rfemur -30.3099 6.4795 13.2175
rtibia 81.9571
rfoot -29.7854 -10.4444
rtoes -8.7008
lfemur -25.9192 9.4746 -21.8766
ltibia 76.5814
lfoot -26.0333 -0.912056
ltoes -5.31688
307
root 0.376035 15.0184 7.02451 -19.5706 -3.46842 7.72437
lowerback 16.5414 1.46412 -4.00808
upperback 7.24863 1.25248 -1.86836
thorax -1.58561 0.570305 0.0818488
lowerneck -9.34817 -1.69621 -7.05265
upperneck 8.93872 -2.07572 7.092
head 4.34773 -0.860669 3.20637
rclavicle 1.72943e-014 -1.76918e-014
rhumerus -31.2617 -22.4353 -70.6335
rradius 11.3333
rwrist 39.4593
rhand -25.8293 -0.375307
rfingers 7.12502
rthumb 0.710598 -30.3539
lclavicle 1.72943e-014 -1.76918e-014
lhumerus -44.2145 32.1226 61.8072
lradius 13.0674
lwrist -23.5038
lhand -19.8661 29.4633
lfingers 7.12502
lthumb 6.46905 59.3445
rfemur -30.6315 6.24081 13.2358
rtibia 83.0438
rfoot -30.3785 -10.3781
rtoes -9.22936
lfemur -26.3542 9.48248 -21.7279
ltibia 77.8895
lfoot -26.8295 -0.809033
ltoes -6.14953
308
root 0.366106 14.9275 7.09372 -19.6173 -3.30478 7.91887
lowerback 16.8746 1.37414 -4.24324
upperback 7.17389 1.07162 -1.97134
thorax -1.83444 0.481208 0.130867
lowerneck -9.31836 -1.57929 -7.08283
upperneck 8.75293 -1.91055 7.1197
head 4.27453 -0.779597 3.22997
rclavicle -2.72335e-014 -3.97569e-016
rhumerus -31.1708 -20.5942 -72.1704
rradius 11.6136
rwrist 37.5949
rhand -23.962 0.0188543
rfingers 7.12502
rthumb 2.51408 -29.9461
lclavicle -2.72335e-014 -3.97569e-016
lhumerus -43.3991 30.0529 63.9136
lradius 14.0592
lwrist -19.9398
lhand -19.1145 29.0154
lfingers 7.12502
lthumb 7.19463 58.8731
rfemur -30.9812 5.8893 12.938
rtibia 84.0775
rfoot -31.1767 -9.92007
rtoes -8.11914
lfemur -26.62 9.28595 -21.9341
ltibia 78.9139
lfoot -27.5479 -0.636797
ltoes -6.18384
309
root 0.348732 14.8714 7.15678 -19.7563 -3.10194 8.23707
lowerback 17.2362 1.36409 -4.78365
upperback 7.19448 0.948877 -2.02348
thorax -2.00063 0.413363 0.396278
lowerneck -9.33445 -1.52946 -7.184
upperneck 8.39309 -1.8183 7.17156
head 4.16228 -0.734605 3.26662
rclavicle 1.0548e-014 1.88845e-014
rhumerus -31.0452 -17.3092 -74.3155
rradius 12.4915
rwrist 34.0891
rhand -22.0367 0.316339
rfingers 7.12502
rthumb 4.37335 -29.6185
lclavicle 1.0548e-014 1.88845e-014
lhumerus -42.7513 28.623 65.5406
lradius 14.9973
lwrist -17.2832
lhand -18.0038 28.4483
lfingers 7.12502
lthumb 8.26667 58.2666
rfemur -31.0014 5.51239 12.5685
rtibia 84.8345
rfoot -31.8939 -9.84224
rtoes -8.04125
lfemur -26.6249 9.02445 -22.2873
ltibia 79.6038
lfoot -28.0616 -0.633968
ltoes -6.16699
310
root 0.330361 14.8335 7.21698 -19.9371 -2.96073 8.51907
lowerback 17.5541 1.43061 -5.27301
upperback 7.33091 0.939446 -2.06402
thorax -2.0227 0.399084 0.626234
lowerneck -9.41484 -1.58958 -7.24117
upperneck 7.87178 -1.86639 7.19691
head 4.02164 -0.757522 3.27759
rclavicle -4.96962e-017 2.3059e-014
rhumerus -31.0344 -14.3215 -76.2848
rradius 13.5598
rwrist 30.8748
rhand -20.5781 1.08713
rfingers 7.12502
rthumb 5.78174 -28.814
lclavicle -4.96962e-017 2.3059e-014
lhumerus -41.8722 27.3498 67.018
lradius 15.7314
lwrist -14.9239
lhand -17.0905 27.5996
lfingers 7.12502
lthumb 9.14802 57.3811
rfemur -30.8288 5.16134 12.2833
rtibia 85.3948
rfoot -33.2972 -9.54989
rtoes -6.6578
lfemur -26.4042 8.73242 -22.6076
ltibia 80.0458
lfoot -28.5512 -0.510672
ltoes -6.71946
311
root 0.312295 14.8084 7.2708 -19.9474 -2.94588 8.46397
lowerback 17.7334 1.46975 -5.39544
upperback 7.4895 0.966677 -2.0048
thorax -1.94939 0.405672 0.750743
lowerneck -9.6102 -1.69068 -7.28546
upperneck 7.29789 -1.9625 7.23282
head 3.88788 -0.801061 3.28646
rclavicle 1.50207e-014 2.48481e-014
rhumerus -31.0484 -11.7966 -77.9567
rradius 14.6553
rwrist 28.0437
rhand -19.7278 1.75608
rfingers 7.12502
rthumb 6.60257 -28.121
lclavicle 1.50207e-014 2.48481e-014
lhumerus -40.8001 26.0874 68.5168
lradius 16.3997
lwrist -12.6677
lhand -16.6512 26.7031
lfingers 7.12502
lthumb 9.57191 56.4656
rfemur -30.7302 4.97854 12.4227
rtibia 85.7663
rfoot -33.824 -9.48265
rtoes -5.87948
lfemur -26.3073 8.474 -22.5355
ltibia 80.3589
lfoot -28.9119 -0.281444
ltoes -6.6631
312
root 0.291006 14.7909 7.31861 -19.821 -3.1027 7.99427
lowerback 17.84 1.46499 -5.09444
upperback 7.60037 1.01155 -1.85223
thorax -1.88925 0.428453 0.733222
lowerneck -9.69056 -1.74803 -7.34554
upperneck 6.64715 -2.0123 7.39083
head 3.71014 -0.818318 3.33913
rclavicle -2.73329e-016 8.54774e-015
rhumerus -31.1075 -9.97815 -79.2695
rradius 15.5869
rwrist 25.7869
rhand -19.342 1.8574
rfingers 7.12502
rthumb 6.97505 -28.0077
lclavicle -2.73329e-016 8.54774e-015
lhumerus -39.7142 24.4209 70.1254
lradius 17.1783
lwrist -10.2751
lhand -16.5242 26.417
lfingers 7.12502
lthumb 9.69442 56.1739
rfemur -30.6946 4.98856 13.1334
rtibia 85.9811
rfoot -33.6577 -9.78893
rtoes -6.10043
lfemur -26.4221 8.29548 -21.9254
ltibia 80.6716
lfoot -29.1506 -0.183605
ltoes -5.85874
313
root 0.271038 14.7832 7.37388 -19.7682 -3.25888 7.85356
lowerback 17.8895 1.51123 -5.05914
upperback 7.70618 1.07932 -1.82198
thorax -1.80532 0.459095 0.732363
lowerneck -9.66288 -1.83105 -7.4407
upperneck 6.01508 -2.10123 7.58362
head 3.52464 -0.856624 3.40664
rclavicle -1.61513e-015 1.8487e-014
rhumerus -31.1565 -9.04691 -80.1295
rradius 16.0701
rwrist 24.5483
rhand -19.4689 2.2852
rfingers 7.12502
rthumb 6.85255 -27.5839
lclavicle -1.61513e-015 1.8487e-014
lhumerus -38.7735 22.7539 71.4554
lradius 17.8185
lwrist -8.20599
lhand -16.6877 26.2291
lfingers 7.12502
lthumb 9.53667 55.9933
rfemur -30.5288 5.08984 13.4521
rtibia 86.0862
rfoot -33.6911 -10.0783
rtoes -7.03534
lfemur -26.2769 8.13612 -21.7004
ltibia 80.8586
lfoot -29.5443 -0.134316
ltoes -5.6747
314
root 0.253227 14.7874 7.42974 -19.6595 -3.46843 7.8147
lowerback 17.8807 1.57145 -5.06309
upperback 7.7604 1.15924 -1.83546
thorax -1.74632 0.496861 0.70567
lowerneck -9.55859 -1.94397 -7.52851
upperneck 5.38996 -2.22838 7.69373
head 3.33132 -0.919457 3.44573
rclavicle -1.14301e-014 -1.51076e-014
rhumerus -31.155 -8.23178 -80.9149
rradius 16.2941
rwrist 23.6577
rhand -19.9635 2.81376
rfingers 7.12502
rthumb 6.37507 -27.0703
lclavicle -1.14301e-014 -1.51076e-014
lhumerus -37.9448 21.3954 72.4649
lradius 18.2375
lwrist -6.70471
lhand -17.357 25.2104
lfingers 7.12502
lthumb 8.89086 55.0031
rfemur -30.3984 5.22047 13.6454
rtibia 86.0999
rfoot -34.5166 -10.0633
rtoes -6.56362
lfemur -26.109 8.03321 -21.621
ltibia 80.9311
lfoot -29.9231 0.299367
ltoes -6.59717
315
root 0.233591 14.8021 7.47508 -19.3471 -3.6585 7.56882
lowerback 17.8325 1.57111 -4.92769
upperback 7.70429 1.1834 -1.77264
thorax -1.78266 0.511852 0.691564
lowerneck -9.32002 -1.99325 -7.69079
upperneck 4.77627 -2.27451 7.8719
head 3.11562 -0.943682 3.52411
rclavicle -2.11209e-014 -3.57812e-015
rhumerus -31.1226 -6.97276 -81.8029
rradius 16.4996
rwrist 22.3451
rhand -20.6467 2.47806
rfingers 7.12502
rthumb 5.71549 -27.4249
lclavicle -2.11209e-014 -3.57812e-015
lhumerus -37.3093 20.5536 73.1534
lradius 18.6775
lwrist -6.04473
lhand -18.301 23.7473
lfingers 7.12502
lthumb 7.97984 53.5766
rfemur -30.4506 5.25206 14.0473
rtibia 86.0034
rfoot -34.1198 -10.4342
rtoes -8.25154
lfemur -26.251 7.81325 -21.3476
ltibia 80.9048
lfoot -30.1351 0.664582
ltoes -6.47494
316
root 0.215728 14.8245 7.51637 -19.0628 -3.67584 7.55158
lowerback 17.7893 1.58687 -4.99427
upperback 7.68074 1.19411 -1.80641
thorax -1.78585 0.516742 0.691887
lowerneck -9.27072 -2.06817 -7.83562
upperneck 4.41268 -2.36341 8.1576
head 3.01134 -0.980392 3.6306
rclavicle 7.33018e-015 8.15017e-015
rhumerus -31.0127 -6.05019 -82.5619
rradius 16.5424
rwrist 21.2951
rhand -21.9609 2.3163
rfingers 7.12502
rthumb 4.44653 -27.617
lclavicle 7.33018e-015 8.15017e-015
lhumerus -36.7072 19.8918 73.6446
lradius 19.23
lwrist -5.71275
lhand -19.2054 23.0293
lfingers 7.12502
lthumb 7.10685 52.8899
rfemur -30.4281 5.16742 14.0877
rtibia 85.812
rfoot -34.3274 -10.2539
rtoes -7.85979
lfemur -26.319 7.40489 -21.4353
ltibia 80.7508
lfoot -30.2936 1.18098
ltoes -6.39883
